In this semi-autobiographical film, black soldiers help to defend France, but are detained in prison camp before being repatriated home.


Screenshots: 
http://i1190.photobucket.com/albums/z457/ronaldoaraujo/bscap0001-23.jpg 
http://i1190.photobucket.com/albums/z457/ronaldoaraujo/bscap0011-9.jpg 
http://i1190.photobucket.com/albums/z457/ronaldoaraujo/bscap0002-15.jpg 
http://i1190.photobucket.com/albums/z457/ronaldoaraujo/bscap0000-16.jpg 
http://i1190.photobucket.com/albums/z457/ronaldoaraujo/bscap0003-18.jpg 
http://i1190.photobucket.com/albums/z457/ronaldoaraujo/bscap0005-13.jpg

ENGLISH SUBTITLES
PORTUGUESE SUBTITLES

www.imdb.com/title/tt0092716/

Format : AVI 
Format/Info : Audio Video Interleave 
File size : 1.37 GiB 
Duration : 2h 27mn 
Overall bit rate : 1 330 Kbps 
Writing application : VirtualDubMod 1.5.10.2 (build 2540/release) 
Writing library : VirtualDubMod build 2540/release 
Video #0 
ID : 0 
Format : MPEG-4 Visual 
Format profile : AdvancedSimple@L5 
Format settings, BVOP : Yes 
Format settings, QPel : No 
Format settings, GMC : No warppoints 
Format settings, Matrix : Default (H.263) 
Codec ID : XVID 
Codec ID/Hint : XviD 
Duration : 2h 27mn 
Bit rate : 1 235 Kbps 
Width : 624 pixels 
Height : 336 pixels 
Display aspect ratio : 1.857 
Frame rate : 25.000 fps 
Resolution : 24 bits 
Colorimetry : 4:2:0 
Scan type : Progressive 
Bits/(Pixel*Frame) : 0.236 
Stream size : 1.27 GiB (93%) 
Writing library : XviD 1.1.0 (UTC 2005-11-22) 
Audio #1 
ID : 1 
Format : MPEG Audio 
Format version : Version 1 
Format profile : Layer 3 
Codec ID : 55 
Codec ID/Hint : MP3 
Duration : 2h 27mn 
Bit rate mode : Variable 
Bit rate : 82.0 Kbps 
Minimum bit rate : 32.0 Kbps 
Channel(s) : 1 channel 
Sampling rate : 48.0 KHz 
Resolution : 16 bits 
Stream size : 86.3 MiB (6%) 
Alignment : Aligned on interleaves 
Interleave, duration : 24 ms (0.60 video frame) 
Interleave, preload duration : 566 ms 
Writing library : LAME3.97b 
Encoding settings : -m m -V 4 -q 3 -lowpass 17.5 --vbr-new -b 32


 
